<svg width="102" height="91" viewBox="0 0 102 91" fill="none" xmlns="http://www.w3.org/2000/svg">
<path d="M36.0297 90.246C42.248 90.246 47.289 85.2051 47.289 78.9868C47.289 72.7684 42.248 67.7275 36.0297 67.7275C29.8113 67.7275 24.7704 72.7684 24.7704 78.9868C24.7704 85.2051 29.8113 90.246 36.0297 90.246Z" fill="#3F3F3F"/>
<path d="M9.00749 58.7205H29.2742C30.5172 58.7205 31.526 57.7117 31.526 56.4687C31.526 55.2257 30.5172 54.2168 29.2742 54.2168H9.00749C7.76444 54.2168 6.75562 55.2257 6.75562 56.4687C6.75562 57.7117 7.76444 58.7205 9.00749 58.7205Z" fill="#FF5634"/>
<path d="M90.0744 90.246C96.2927 90.246 101.334 85.2051 101.334 78.9868C101.334 72.7684 96.2927 67.7275 90.0744 67.7275C83.856 67.7275 78.8151 72.7684 78.8151 78.9868C78.8151 85.2051 83.856 90.246 90.0744 90.246Z" fill="#3F3F3F"/>
<path d="M90.0743 83.4909C92.5616 83.4909 94.578 81.4745 94.578 78.9871C94.578 76.4998 92.5616 74.4834 90.0743 74.4834C87.5869 74.4834 85.5706 76.4998 85.5706 78.9871C85.5706 81.4745 87.5869 83.4909 90.0743 83.4909Z" fill="white"/>
<path d="M36.0297 83.4909C38.517 83.4909 40.5334 81.4745 40.5334 78.9871C40.5334 76.4998 38.517 74.4834 36.0297 74.4834C33.5424 74.4834 31.526 76.4998 31.526 78.9871C31.526 81.4745 33.5424 83.4909 36.0297 83.4909Z" fill="white"/>
<path d="M90.0743 81.2382C89.1736 81.2382 88.498 80.7878 88.0476 79.8871L79.0402 61.8722C78.5898 60.7463 79.0402 59.3951 79.941 58.9448C81.0669 58.4944 82.418 58.9448 82.8684 59.8455L91.8758 77.8604C92.3262 78.9863 91.8758 80.3374 90.9751 80.7878C90.7499 81.2382 90.5247 81.2382 90.0743 81.2382Z" fill="#E13F1F"/>
<path d="M42.7853 78.9865H70.0258C72.3926 78.9865 74.2399 77.0382 74.7649 74.7303C76.5648 66.818 83.3978 63.5474 89.3987 62.7731C92.5513 62.5479 92.3261 58.7198 92.3261 58.7198C87.8224 42.9568 76.5631 31.6975 72.0594 27.1938H67.5557C74.1244 39.8942 76.061 72.8569 58.5483 72.2309H42.7853V78.9865Z" fill="#E13F1F"/>
<path d="M54.0446 51.9644H31.526C27.0223 56.4681 22.5186 65.4755 22.5186 72.2311C27.0223 74.483 42.7853 72.2311 42.7853 72.2311H58.5483C49.8223 72.2311 47.289 59.7851 54.0446 51.9644Z" fill="#E13F1F"/>
<path d="M76.5632 20.438V29.4454C79.0403 29.4454 81.0669 27.4188 81.0669 24.9417C81.0669 22.4647 79.0403 20.438 76.5632 20.438Z" fill="#FFC107"/>
<path d="M59.1113 53.7656C59.1113 54.3466 58.7983 54.878 58.2781 55.1347C56.7063 55.9071 52.8399 57.3685 46.0505 57.3685C36.8179 57.3685 29.8372 54.216 29.8372 54.216V53.09C29.8372 49.9802 32.357 47.4604 35.4668 47.4604H52.8061C56.274 47.4604 59.1113 50.2977 59.1113 53.7656Z" fill="#3F3F3F"/>
<path d="M67.5738 28.0425C70.3999 28.9545 73.4061 29.4004 76.5632 29.4454V20.438C73.4264 20.4808 70.3864 20.9852 67.4387 21.9265C66.1439 22.3386 65.304 23.5974 65.304 24.9552C65.304 26.3694 66.2295 27.6102 67.5738 28.0425Z" fill="#FF5634"/>
<path d="M36.0298 63.2236C28.5132 63.2236 20.7353 68.1219 17.201 75.1379C16.2603 77.0054 17.7886 78.9866 19.8796 78.9866H48.5787C50.3538 78.9866 51.8272 77.5334 51.481 75.7924C50.0394 68.5423 43.7599 63.2236 36.0298 63.2236Z" fill="#FF5634"/>
<path d="M54.0446 29.4461H69.8076C71.0506 29.4461 72.0594 28.4373 72.0594 27.1943C72.0594 25.9512 71.0506 24.9424 69.8076 24.9424H54.0446C52.8016 24.9424 51.7927 25.9512 51.7927 27.1943C51.7927 28.4373 52.8016 29.4461 54.0446 29.4461Z" fill="#3F3F3F"/>
<path d="M29.2741 29.4458H0V51.0022C0 52.7773 1.439 54.2163 3.21409 54.2163H26.06C27.8351 54.2163 29.2741 52.7773 29.2741 51.0022V29.4458Z" fill="#FDB52A"/>
<path d="M27.1314 27.1938H2.14273C0.95933 27.1938 0 28.1531 0 29.3365V33.9493H29.2741V29.3365C29.2741 28.1531 28.3148 27.1938 27.1314 27.1938Z" fill="#D99002"/>
<path d="M33.7778 2.42334H4.50366V23.9797C4.50366 25.7548 5.94266 27.1938 7.71775 27.1938H30.5637C32.3388 27.1938 33.7778 25.7548 33.7778 23.9797V2.42334Z" fill="#FDB52A"/>
<path d="M31.6351 0.171875H6.64639C5.463 0.171875 4.50366 1.13121 4.50366 2.3146V6.92744H33.7778V2.3146C33.7778 1.13121 32.8185 0.171875 31.6351 0.171875Z" fill="#D99002"/>
</svg>
