<svg width="1222" height="45" viewBox="0 0 1222 45" fill="none" xmlns="http://www.w3.org/2000/svg">
<path d="M7.39059 27.1639H41.5631V32.0457C41.5631 33.3405 41.0488 34.5822 40.1333 35.4977C39.2177 36.4132 37.976 36.9275 36.6813 36.9275H12.2724C10.9776 36.9275 9.73595 36.4132 8.82043 35.4977C7.90492 34.5822 7.39059 33.3405 7.39059 32.0457V27.1639Z" stroke="#929292" stroke-width="4.68728" stroke-linecap="round" stroke-linejoin="round"/>
<path d="M17.1542 2.75513H31.7995C34.389 2.75513 36.8724 3.78379 38.7034 5.61481C40.5344 7.44584 41.5631 9.92924 41.5631 12.5187V17.4005H7.39059V12.5187C7.39059 9.92924 8.41925 7.44584 10.2503 5.61481C12.0813 3.78379 14.5647 2.75513 17.1542 2.75513Z" stroke="#929292" stroke-width="3.89088" stroke-linecap="round" stroke-linejoin="round"/>
<path d="M41.5632 17.4004H7.39064C4.6945 17.4004 2.50885 19.586 2.50885 22.2822C2.50885 24.9783 4.6945 27.164 7.39064 27.164H41.5632C44.2593 27.164 46.4449 24.9783 46.4449 22.2822C46.4449 19.586 44.2593 17.4004 41.5632 17.4004Z" stroke="#929292" stroke-width="3.89088" stroke-linecap="round" stroke-linejoin="round"/>
<path d="M80.0412 29.9219L74.3852 21.8896C77.5311 20.7852 79.6061 18.1078 79.6061 14.6941C79.6061 10.1425 75.9247 6.92957 70.938 6.92957H60.5965V29.9219H65.5162V22.4586H69.1642L74.4186 29.9219H80.0412ZM65.5162 11.4477H70.4025C72.8456 11.4477 74.519 12.7195 74.519 14.6941C74.519 16.6687 72.8456 17.9405 70.4025 17.9405H65.5162V11.4477ZM91.3109 26.0062C89.2694 26.0062 87.7633 24.7344 87.1944 22.8602H99.6778C99.6778 16.334 96.4984 12.2175 91.0766 12.2175C86.023 12.2175 82.1742 15.9993 82.1742 21.2203C82.1742 26.5416 86.1903 30.3235 91.3444 30.3235C93.8879 30.3235 96.8665 29.2525 98.406 27.6461L95.2935 24.4666C94.3565 25.3703 92.6831 26.0062 91.3109 26.0062ZM91.2774 16.5348C93.252 16.5348 94.5238 17.6392 94.9923 19.3461H87.2613C87.8972 17.6058 89.4367 16.5348 91.2774 16.5348ZM109.476 30.3235C113.727 30.3235 116.504 28.1481 116.504 24.7344C116.504 20.9525 113.191 19.9485 110.213 19.1788C107.87 18.5429 107.167 18.2751 107.167 17.338C107.167 16.7356 108.004 16.3005 109.209 16.3005C110.681 16.3005 112.488 16.8695 114.061 17.8401L116.036 14.3594C114.128 13.0876 111.685 12.2175 109.209 12.2175C105.125 12.2175 102.415 14.5602 102.448 17.8401C102.482 21.2538 105.226 22.2243 108.773 23.0945C110.547 23.563 111.819 23.8977 111.819 24.9687C111.819 25.7384 110.882 26.2739 109.577 26.2739C107.267 26.2739 105.326 25.4372 103.787 24.3328L101.678 27.713C103.753 29.3864 106.698 30.3235 109.476 30.3235ZM128.886 25.638C128.551 25.9727 127.882 26.207 127.213 26.207C126.309 26.207 125.573 25.4037 125.573 24.2658V16.5683H129.321V12.6191H125.573V7.86666H120.887V12.6191H118.511V16.5683H120.887V25.0356C120.887 28.1481 123.029 30.3235 126.075 30.3235C127.48 30.3235 129.053 29.7211 130.057 28.8174L128.886 25.638ZM140.849 12.2175C138.439 12.2175 136.063 12.8868 133.619 14.1251L135.259 17.3715C136.632 16.6687 138.138 16.1332 139.744 16.1332C142.589 16.1332 143.727 17.7396 143.727 19.5804V19.915C142.254 19.3461 140.715 19.0449 139.309 19.0449C135.293 19.0449 132.113 21.3876 132.113 24.8013C132.113 28.1146 134.958 30.3235 138.64 30.3235C140.514 30.3235 142.488 29.5872 143.727 28.1816V29.9219H148.446V19.5804C148.446 15.0622 145.367 12.2175 140.849 12.2175ZM139.744 26.9433C138.071 26.9433 136.832 26.0731 136.832 24.6675C136.832 23.2618 138.238 22.2243 140.012 22.2243C141.351 22.2243 142.622 22.4586 143.727 22.8602V24.4666C143.392 26.0731 141.618 26.9433 139.744 26.9433ZM164.043 12.6191V22.9606L164.01 22.8602C164.01 24.7344 162.437 26.207 160.395 26.207C158.454 26.207 157.116 24.7344 157.116 22.5925V12.6191H152.397V23.63C152.397 27.5457 155.074 30.3235 158.822 30.3235C161.065 30.3235 163.006 29.3195 164.043 27.7465V29.9219H168.93V12.6191H164.043ZM178.008 15.832V12.6191H173.122V29.9219H178.008V21.6554C178.008 18.409 180.317 16.334 183.932 16.334V12.2175C181.288 12.2175 179.146 13.5897 178.008 15.832ZM194.482 12.2175C192.072 12.2175 189.696 12.8868 187.253 14.1251L188.893 17.3715C190.265 16.6687 191.771 16.1332 193.377 16.1332C196.222 16.1332 197.36 17.7396 197.36 19.5804V19.915C195.887 19.3461 194.348 19.0449 192.942 19.0449C188.926 19.0449 185.747 21.3876 185.747 24.8013C185.747 28.1146 188.591 30.3235 192.273 30.3235C194.147 30.3235 196.122 29.5872 197.36 28.1816V29.9219H202.079V19.5804C202.079 15.0622 199 12.2175 194.482 12.2175ZM193.377 26.9433C191.704 26.9433 190.466 26.0731 190.466 24.6675C190.466 23.2618 191.871 22.2243 193.645 22.2243C194.984 22.2243 196.256 22.4586 197.36 22.8602V24.4666C197.025 26.0731 195.251 26.9433 193.377 26.9433ZM216.204 12.2175C213.962 12.2175 212.021 13.2215 210.983 14.7945V12.6191H206.097V29.9219H210.983V19.5804L211.017 19.6808C211.017 17.8066 212.59 16.334 214.631 16.334C216.572 16.334 217.911 17.8066 217.911 19.9485V29.9219H222.63V18.911C222.63 14.9953 219.952 12.2175 216.204 12.2175ZM235.858 25.638C235.524 25.9727 234.854 26.207 234.185 26.207C233.281 26.207 232.545 25.4037 232.545 24.2658V16.5683H236.293V12.6191H232.545V7.86666H227.859V12.6191H225.483V16.5683H227.859V25.0356C227.859 28.1481 230.001 30.3235 233.047 30.3235C234.453 30.3235 236.026 29.7211 237.03 28.8174L235.858 25.638Z" fill="#929292"/>
<path d="M350.977 39.9543C355.954 39.9543 360.727 37.9771 364.247 34.4577C367.766 30.9382 369.743 26.1648 369.743 21.1875H332.21C332.21 26.1648 334.187 30.9382 337.707 34.4577C339.449 36.2003 341.518 37.5827 343.795 38.5258C346.072 39.4689 348.512 39.9543 350.977 39.9543Z" stroke="#929292" stroke-width="4.5" stroke-linecap="round" stroke-linejoin="round"/>
<path d="M352.42 15.4132L361.082 2.42078" stroke="#929292" stroke-width="4.5" stroke-linecap="round" stroke-linejoin="round"/>
<path d="M356.751 16.8567L366.856 8.19507" stroke="#929292" stroke-width="4.5" stroke-linecap="round" stroke-linejoin="round"/>
<path d="M407.969 33.9219L402.313 25.8896C405.459 24.7852 407.534 22.1078 407.534 18.6941C407.534 14.1425 403.853 10.9296 398.866 10.9296H388.525V33.9219H393.444V26.4586H397.092L402.347 33.9219H407.969ZM393.444 15.4477H398.331C400.774 15.4477 402.447 16.7195 402.447 18.6941C402.447 20.6687 400.774 21.9405 398.331 21.9405H393.444V15.4477ZM419.239 30.0062C417.197 30.0062 415.691 28.7344 415.122 26.8602H427.606C427.606 20.334 424.426 16.2175 419.005 16.2175C413.951 16.2175 410.102 19.9993 410.102 25.2203C410.102 30.5416 414.118 34.3235 419.272 34.3235C421.816 34.3235 424.795 33.2525 426.334 31.6461L423.222 28.4666C422.285 29.3703 420.611 30.0062 419.239 30.0062ZM419.205 20.5348C421.18 20.5348 422.452 21.6392 422.92 23.3461H415.189C415.825 21.6058 417.365 20.5348 419.205 20.5348ZM437.404 34.3235C441.655 34.3235 444.433 32.1481 444.433 28.7344C444.433 24.9525 441.119 23.9485 438.141 23.1788C435.798 22.5429 435.095 22.2751 435.095 21.338C435.095 20.7356 435.932 20.3005 437.137 20.3005C438.609 20.3005 440.416 20.8695 441.989 21.8401L443.964 18.3594C442.056 17.0876 439.613 16.2175 437.137 16.2175C433.054 16.2175 430.343 18.5602 430.376 21.8401C430.41 25.2538 433.154 26.2243 436.702 27.0945C438.475 27.563 439.747 27.8977 439.747 28.9687C439.747 29.7384 438.81 30.2739 437.505 30.2739C435.195 30.2739 433.254 29.4372 431.715 28.3328L429.606 31.713C431.681 33.3864 434.627 34.3235 437.404 34.3235ZM456.814 29.638C456.479 29.9727 455.81 30.207 455.141 30.207C454.237 30.207 453.501 29.4037 453.501 28.2658V20.5683H457.249V16.6191H453.501V11.8667H448.815V16.6191H446.439V20.5683H448.815V29.0356C448.815 32.1481 450.957 34.3235 454.003 34.3235C455.408 34.3235 456.981 33.7211 457.985 32.8174L456.814 29.638ZM468.777 16.2175C466.367 16.2175 463.991 16.8868 461.548 18.1251L463.188 21.3715C464.56 20.6687 466.066 20.1332 467.672 20.1332C470.517 20.1332 471.655 21.7396 471.655 23.5804V23.915C470.182 23.3461 468.643 23.0449 467.237 23.0449C463.221 23.0449 460.042 25.3876 460.042 28.8013C460.042 32.1146 462.886 34.3235 466.568 34.3235C468.442 34.3235 470.417 33.5872 471.655 32.1816V33.9219H476.374V23.5804C476.374 19.0622 473.295 16.2175 468.777 16.2175ZM467.672 30.9433C465.999 30.9433 464.76 30.0731 464.76 28.6675C464.76 27.2618 466.166 26.2243 467.94 26.2243C469.279 26.2243 470.55 26.4586 471.655 26.8602V28.4666C471.32 30.0731 469.546 30.9433 467.672 30.9433ZM491.972 16.6191V26.9606L491.938 26.8602C491.938 28.7344 490.365 30.207 488.324 30.207C486.382 30.207 485.044 28.7344 485.044 26.5925V16.6191H480.325V27.63C480.325 31.5457 483.002 34.3235 486.751 34.3235C488.993 34.3235 490.934 33.3195 491.972 31.7465V33.9219H496.858V16.6191H491.972ZM505.936 19.832V16.6191H501.05V33.9219H505.936V25.6554C505.936 22.409 508.245 20.334 511.86 20.334V16.2175C509.216 16.2175 507.074 17.5897 505.936 19.832ZM522.41 16.2175C520 16.2175 517.624 16.8868 515.181 18.1251L516.821 21.3715C518.193 20.6687 519.699 20.1332 521.305 20.1332C524.15 20.1332 525.288 21.7396 525.288 23.5804V23.915C523.815 23.3461 522.276 23.0449 520.87 23.0449C516.854 23.0449 513.675 25.3876 513.675 28.8013C513.675 32.1146 516.52 34.3235 520.201 34.3235C522.075 34.3235 524.05 33.5872 525.288 32.1816V33.9219H530.007V23.5804C530.007 19.0622 526.928 16.2175 522.41 16.2175ZM521.305 30.9433C519.632 30.9433 518.394 30.0731 518.394 28.6675C518.394 27.2618 519.799 26.2243 521.573 26.2243C522.912 26.2243 524.184 26.4586 525.288 26.8602V28.4666C524.953 30.0731 523.18 30.9433 521.305 30.9433ZM544.132 16.2175C541.89 16.2175 539.949 17.2215 538.911 18.7945V16.6191H534.025V33.9219H538.911V23.5804L538.945 23.6808C538.945 21.8066 540.518 20.334 542.559 20.334C544.5 20.334 545.839 21.8066 545.839 23.9485V33.9219H550.558V22.911C550.558 18.9953 547.881 16.2175 544.132 16.2175ZM563.786 29.638C563.452 29.9727 562.782 30.207 562.113 30.207C561.209 30.207 560.473 29.4037 560.473 28.2658V20.5683H564.221V16.6191H560.473V11.8667H555.788V16.6191H553.411V20.5683H555.788V29.0356C555.788 32.1481 557.929 34.3235 560.975 34.3235C562.381 34.3235 563.954 33.7211 564.958 32.8174L563.786 29.638Z" fill="#929292"/>
<path d="M690.212 19.392C694.055 19.392 697.169 15.4986 697.169 10.696C697.169 5.89332 694.055 2 690.212 2C686.37 2 683.256 5.89332 683.256 10.696C683.256 15.4986 686.37 19.392 690.212 19.392Z" stroke="#929292" stroke-width="3.71" stroke-linecap="round" stroke-linejoin="round"/>
<path d="M690.213 19.3918V39.6825" stroke="#929292" stroke-width="3.71" stroke-linecap="round" stroke-linejoin="round"/>
<path d="M669.632 2V39.6826" stroke="#929292" stroke-width="3.71" stroke-linecap="round" stroke-linejoin="round"/>
<path d="M676.879 2V9.24665C676.879 10.1983 676.691 11.1406 676.327 12.0198C675.963 12.899 675.429 13.6979 674.756 14.3708C674.083 15.0437 673.284 15.5775 672.405 15.9417C671.526 16.3059 670.584 16.4933 669.632 16.4933C667.71 16.4933 665.867 15.7298 664.508 14.3708C663.149 13.0118 662.385 11.1686 662.385 9.24665V2" stroke="#929292" stroke-width="3.71" stroke-linecap="round" stroke-linejoin="round"/>
<path d="M734.897 30.9219L729.241 22.8896C732.387 21.7852 734.462 19.1078 734.462 15.6941C734.462 11.1425 730.781 7.92957 725.794 7.92957H715.453V30.9219H720.372V23.4586H724.02L729.275 30.9219H734.897ZM720.372 12.4477H725.259C727.702 12.4477 729.375 13.7195 729.375 15.6941C729.375 17.6687 727.702 18.9405 725.259 18.9405H720.372V12.4477ZM746.167 27.0062C744.126 27.0062 742.619 25.7344 742.051 23.8602H754.534C754.534 17.334 751.355 13.2175 745.933 13.2175C740.879 13.2175 737.03 16.9993 737.03 22.2203C737.03 27.5416 741.046 31.3235 746.201 31.3235C748.744 31.3235 751.723 30.2525 753.262 28.6461L750.15 25.4666C749.213 26.3703 747.539 27.0062 746.167 27.0062ZM746.134 17.5348C748.108 17.5348 749.38 18.6392 749.848 20.3461H742.117C742.753 18.6058 744.293 17.5348 746.134 17.5348ZM764.332 31.3235C768.583 31.3235 771.361 29.1481 771.361 25.7344C771.361 21.9525 768.047 20.9485 765.069 20.1788C762.726 19.5429 762.023 19.2751 762.023 18.338C762.023 17.7356 762.86 17.3005 764.065 17.3005C765.537 17.3005 767.345 17.8695 768.918 18.8401L770.892 15.3594C768.984 14.0876 766.541 13.2175 764.065 13.2175C759.982 13.2175 757.271 15.5602 757.304 18.8401C757.338 22.2538 760.082 23.2243 763.63 24.0945C765.403 24.563 766.675 24.8977 766.675 25.9687C766.675 26.7384 765.738 27.2739 764.433 27.2739C762.124 27.2739 760.182 26.4372 758.643 25.3328L756.534 28.713C758.609 30.3864 761.555 31.3235 764.332 31.3235ZM783.742 26.638C783.407 26.9727 782.738 27.207 782.069 27.207C781.165 27.207 780.429 26.4037 780.429 25.2658V17.5683H784.177V13.6191H780.429V8.86666H775.743V13.6191H773.367V17.5683H775.743V26.0356C775.743 29.1481 777.885 31.3235 780.931 31.3235C782.336 31.3235 783.909 30.7211 784.913 29.8174L783.742 26.638ZM795.705 13.2175C793.295 13.2175 790.919 13.8868 788.476 15.1251L790.116 18.3715C791.488 17.6687 792.994 17.1332 794.6 17.1332C797.445 17.1332 798.583 18.7396 798.583 20.5804V20.915C797.11 20.3461 795.571 20.0449 794.165 20.0449C790.149 20.0449 786.97 22.3876 786.97 25.8013C786.97 29.1146 789.814 31.3235 793.496 31.3235C795.37 31.3235 797.345 30.5872 798.583 29.1816V30.9219H803.302V20.5804C803.302 16.0622 800.223 13.2175 795.705 13.2175ZM794.6 27.9433C792.927 27.9433 791.689 27.0731 791.689 25.6675C791.689 24.2618 793.094 23.2243 794.868 23.2243C796.207 23.2243 797.478 23.4586 798.583 23.8602V25.4666C798.248 27.0731 796.474 27.9433 794.6 27.9433ZM818.9 13.6191V23.9606L818.866 23.8602C818.866 25.7344 817.293 27.207 815.252 27.207C813.311 27.207 811.972 25.7344 811.972 23.5925V13.6191H807.253V24.63C807.253 28.5457 809.93 31.3235 813.679 31.3235C815.921 31.3235 817.862 30.3195 818.9 28.7465V30.9219H823.786V13.6191H818.9ZM832.864 16.832V13.6191H827.978V30.9219H832.864V22.6554C832.864 19.409 835.174 17.334 838.788 17.334V13.2175C836.144 13.2175 834.002 14.5897 832.864 16.832ZM849.338 13.2175C846.928 13.2175 844.552 13.8868 842.109 15.1251L843.749 18.3715C845.121 17.6687 846.627 17.1332 848.233 17.1332C851.078 17.1332 852.216 18.7396 852.216 20.5804V20.915C850.744 20.3461 849.204 20.0449 847.798 20.0449C843.782 20.0449 840.603 22.3876 840.603 25.8013C840.603 29.1146 843.448 31.3235 847.129 31.3235C849.003 31.3235 850.978 30.5872 852.216 29.1816V30.9219H856.935V20.5804C856.935 16.0622 853.856 13.2175 849.338 13.2175ZM848.233 27.9433C846.56 27.9433 845.322 27.0731 845.322 25.6675C845.322 24.2618 846.727 23.2243 848.501 23.2243C849.84 23.2243 851.112 23.4586 852.216 23.8602V25.4666C851.881 27.0731 850.108 27.9433 848.233 27.9433ZM871.06 13.2175C868.818 13.2175 866.877 14.2215 865.839 15.7945V13.6191H860.953V30.9219H865.839V20.5804L865.873 20.6808C865.873 18.8066 867.446 17.334 869.487 17.334C871.428 17.334 872.767 18.8066 872.767 20.9485V30.9219H877.486V19.911C877.486 15.9953 874.809 13.2175 871.06 13.2175ZM890.714 26.638C890.38 26.9727 889.71 27.207 889.041 27.207C888.137 27.207 887.401 26.4037 887.401 25.2658V17.5683H891.149V13.6191H887.401V8.86666H882.716V13.6191H880.339V17.5683H882.716V26.0356C882.716 29.1481 884.858 31.3235 887.903 31.3235C889.309 31.3235 890.882 30.7211 891.886 29.8174L890.714 26.638Z" fill="#929292"/>
<path d="M1004.36 3.64478L988.53 33.4157C988.31 33.8262 988.174 34.2764 988.13 34.7399C988.085 35.2035 988.133 35.6713 988.271 36.1161C988.409 36.561 988.634 36.974 988.932 37.3313C989.231 37.6886 989.598 37.9831 990.011 38.1976C995.274 40.8501 1001.09 42.2319 1006.98 42.2319C1012.87 42.2319 1018.68 40.8501 1023.95 38.1976C1024.37 37.9941 1024.75 37.7076 1025.06 37.3551C1025.37 37.0027 1025.61 36.5914 1025.76 36.1456C1025.91 35.6997 1025.97 35.2284 1025.93 34.7595C1025.9 34.2906 1025.77 33.8337 1025.55 33.4157L1009.72 3.64478C1009.46 3.17 1009.07 2.77508 1008.59 2.50033C1008.12 2.22557 1007.59 2.08081 1007.04 2.08081C1006.49 2.08081 1005.96 2.22557 1005.49 2.50033C1005.02 2.77508 1004.63 3.17 1004.36 3.64478Z" stroke="#929292" stroke-width="3.89088" stroke-linecap="round" stroke-linejoin="round"/>
<path d="M1023.21 29.2201C1018.17 31.6656 1012.64 32.9361 1007.04 32.9361C1001.44 32.9361 995.913 31.6656 990.875 29.2201" stroke="#929292" stroke-width="3.89088" stroke-linecap="round" stroke-linejoin="round"/>
<path d="M1002.41 23.6979V25.2404" stroke="#929292" stroke-width="3.89088" stroke-linecap="round" stroke-linejoin="round"/>
<path d="M1011.67 23.6979V25.2404" stroke="#929292" stroke-width="3.89088" stroke-linecap="round" stroke-linejoin="round"/>
<path d="M1007.04 14.4426V15.9852" stroke="#929292" stroke-width="3.89088" stroke-linecap="round" stroke-linejoin="round"/>
<path d="M1062.83 31.9219L1057.17 23.8896C1060.32 22.7852 1062.39 20.1078 1062.39 16.6941C1062.39 12.1425 1058.71 8.92957 1053.72 8.92957H1043.38V31.9219H1048.3V24.4586H1051.95L1057.2 31.9219H1062.83ZM1048.3 13.4477H1053.19C1055.63 13.4477 1057.3 14.7195 1057.3 16.6941C1057.3 18.6687 1055.63 19.9405 1053.19 19.9405H1048.3V13.4477ZM1074.1 28.0062C1072.05 28.0062 1070.55 26.7344 1069.98 24.8602H1082.46C1082.46 18.334 1079.28 14.2175 1073.86 14.2175C1068.81 14.2175 1064.96 17.9993 1064.96 23.2203C1064.96 28.5416 1068.97 32.3235 1074.13 32.3235C1076.67 32.3235 1079.65 31.2525 1081.19 29.6461L1078.08 26.4666C1077.14 27.3703 1075.47 28.0062 1074.1 28.0062ZM1074.06 18.5348C1076.04 18.5348 1077.31 19.6392 1077.78 21.3461H1070.05C1070.68 19.6058 1072.22 18.5348 1074.06 18.5348ZM1092.26 32.3235C1096.51 32.3235 1099.29 30.1481 1099.29 26.7344C1099.29 22.9525 1095.98 21.9485 1093 21.1788C1090.65 20.5429 1089.95 20.2751 1089.95 19.338C1089.95 18.7356 1090.79 18.3005 1091.99 18.3005C1093.47 18.3005 1095.27 18.8695 1096.85 19.8401L1098.82 16.3594C1096.91 15.0876 1094.47 14.2175 1091.99 14.2175C1087.91 14.2175 1085.2 16.5602 1085.23 19.8401C1085.27 23.2538 1088.01 24.2243 1091.56 25.0945C1093.33 25.563 1094.6 25.8977 1094.6 26.9687C1094.6 27.7384 1093.67 28.2739 1092.36 28.2739C1090.05 28.2739 1088.11 27.4372 1086.57 26.3328L1084.46 29.713C1086.54 31.3864 1089.48 32.3235 1092.26 32.3235ZM1111.67 27.638C1111.34 27.9727 1110.67 28.207 1110 28.207C1109.09 28.207 1108.36 27.4037 1108.36 26.2658V18.5683H1112.11V14.6191H1108.36V9.86666H1103.67V14.6191H1101.3V18.5683H1103.67V27.0356C1103.67 30.1481 1105.81 32.3235 1108.86 32.3235C1110.27 32.3235 1111.84 31.7211 1112.84 30.8174L1111.67 27.638ZM1123.63 14.2175C1121.22 14.2175 1118.85 14.8868 1116.4 16.1251L1118.04 19.3715C1119.42 18.6687 1120.92 18.1332 1122.53 18.1332C1125.37 18.1332 1126.51 19.7396 1126.51 21.5804V21.915C1125.04 21.3461 1123.5 21.0449 1122.09 21.0449C1118.08 21.0449 1114.9 23.3876 1114.9 26.8013C1114.9 30.1146 1117.74 32.3235 1121.42 32.3235C1123.3 32.3235 1125.27 31.5872 1126.51 30.1816V31.9219H1131.23V21.5804C1131.23 17.0622 1128.15 14.2175 1123.63 14.2175ZM1122.53 28.9433C1120.86 28.9433 1119.62 28.0731 1119.62 26.6675C1119.62 25.2618 1121.02 24.2243 1122.8 24.2243C1124.14 24.2243 1125.41 24.4586 1126.51 24.8602V26.4666C1126.18 28.0731 1124.4 28.9433 1122.53 28.9433ZM1146.83 14.6191V24.9606L1146.79 24.8602C1146.79 26.7344 1145.22 28.207 1143.18 28.207C1141.24 28.207 1139.9 26.7344 1139.9 24.5925V14.6191H1135.18V25.63C1135.18 29.5457 1137.86 32.3235 1141.61 32.3235C1143.85 32.3235 1145.79 31.3195 1146.83 29.7465V31.9219H1151.71V14.6191H1146.83ZM1160.79 17.832V14.6191H1155.91V31.9219H1160.79V23.6554C1160.79 20.409 1163.1 18.334 1166.72 18.334V14.2175C1164.07 14.2175 1161.93 15.5897 1160.79 17.832ZM1177.27 14.2175C1174.86 14.2175 1172.48 14.8868 1170.04 16.1251L1171.68 19.3715C1173.05 18.6687 1174.56 18.1332 1176.16 18.1332C1179.01 18.1332 1180.14 19.7396 1180.14 21.5804V21.915C1178.67 21.3461 1177.13 21.0449 1175.73 21.0449C1171.71 21.0449 1168.53 23.3876 1168.53 26.8013C1168.53 30.1146 1171.38 32.3235 1175.06 32.3235C1176.93 32.3235 1178.91 31.5872 1180.14 30.1816V31.9219H1184.86V21.5804C1184.86 17.0622 1181.78 14.2175 1177.27 14.2175ZM1176.16 28.9433C1174.49 28.9433 1173.25 28.0731 1173.25 26.6675C1173.25 25.2618 1174.66 24.2243 1176.43 24.2243C1177.77 24.2243 1179.04 24.4586 1180.14 24.8602V26.4666C1179.81 28.0731 1178.04 28.9433 1176.16 28.9433ZM1198.99 14.2175C1196.75 14.2175 1194.81 15.2215 1193.77 16.7945V14.6191H1188.88V31.9219H1193.77V21.5804L1193.8 21.6808C1193.8 19.8066 1195.37 18.334 1197.42 18.334C1199.36 18.334 1200.7 19.8066 1200.7 21.9485V31.9219H1205.41V20.911C1205.41 16.9953 1202.74 14.2175 1198.99 14.2175ZM1218.64 27.638C1218.31 27.9727 1217.64 28.207 1216.97 28.207C1216.07 28.207 1215.33 27.4037 1215.33 26.2658V18.5683H1219.08V14.6191H1215.33V9.86666H1210.64V14.6191H1208.27V18.5683H1210.64V27.0356C1210.64 30.1481 1212.79 32.3235 1215.83 32.3235C1217.24 32.3235 1218.81 31.7211 1219.81 30.8174L1218.64 27.638Z" fill="#929292"/>
</svg>
